<svg width="24" height="24" viewBox="0 0 24 24" fill="none" xmlns="http://www.w3.org/2000/svg">
  <path fill-rule="evenodd" clip-rule="evenodd"
    d="M1.12284 0.758624C0.916128 0.758624 0.748557 0.928448 0.748557 1.13794V4.63519C0.748557 4.84468 0.916128 5.01451 1.12284 5.01451H4.57369C4.78039 5.01451 4.94796 4.84468 4.94796 4.63519V1.13794C4.94796 0.928448 4.78039 0.758624 4.57369 0.758624H1.12284ZM0 1.13794C0 0.509471 0.502711 0 1.12284 0H4.57369C5.19381 0 5.69652 0.509471 5.69652 1.13794V4.63519C5.69652 5.26366 5.19381 5.77313 4.57369 5.77313H1.12284C0.502711 5.77313 0 5.26366 0 4.63519V1.13794Z"
    transform="translate(1 1)" fill="#9BA0A5" stroke="#9BA0A5" stroke-width="0.25"
    stroke-miterlimit="10" />
  <path fill-rule="evenodd" clip-rule="evenodd"
    d="M1.12284 0.758624C0.916128 0.758624 0.748557 0.928448 0.748557 1.13794V4.63519C0.748557 4.84468 0.916128 5.01451 1.12284 5.01451H4.57369C4.78039 5.01451 4.94796 4.84468 4.94796 4.63519V1.13794C4.94796 0.928448 4.78039 0.758624 4.57369 0.758624H1.12284ZM0 1.13794C0 0.509471 0.502711 0 1.12284 0H4.57369C5.19381 0 5.69652 0.509471 5.69652 1.13794V4.63519C5.69652 5.26366 5.19381 5.77313 4.57369 5.77313H1.12284C0.502711 5.77313 0 5.26366 0 4.63519V1.13794Z"
    transform="translate(9.15186 1)" fill="#9BA0A5" stroke="#9BA0A5" stroke-width="0.25"
    stroke-miterlimit="10" />
  <path fill-rule="evenodd" clip-rule="evenodd"
    d="M1.12284 0.758624C0.916128 0.758624 0.748557 0.928448 0.748557 1.13794V4.63519C0.748557 4.84468 0.916128 5.01451 1.12284 5.01451H4.57368C4.78039 5.01451 4.94796 4.84468 4.94796 4.63519V1.13794C4.94796 0.928448 4.78039 0.758624 4.57368 0.758624H1.12284ZM0 1.13794C0 0.509471 0.502711 0 1.12284 0H4.57368C5.19381 0 5.69652 0.509471 5.69652 1.13794V4.63519C5.69652 5.26366 5.19381 5.77313 4.57368 5.77313H1.12284C0.502711 5.77313 0 5.26366 0 4.63519V1.13794Z"
    transform="translate(17.3037 1)" fill="#9BA0A5" stroke="#9BA0A5" stroke-width="0.25"
    stroke-miterlimit="10" />
  <path fill-rule="evenodd" clip-rule="evenodd"
    d="M1.12284 0.758624C0.916128 0.758624 0.748557 0.928448 0.748557 1.13794V4.63519C0.748557 4.84468 0.916128 5.01451 1.12284 5.01451H4.57369C4.78039 5.01451 4.94796 4.84468 4.94796 4.63519V1.13794C4.94796 0.928448 4.78039 0.758624 4.57369 0.758624H1.12284ZM0 1.13794C0 0.509471 0.502711 0 1.12284 0H4.57369C5.19381 0 5.69652 0.509471 5.69652 1.13794V4.63519C5.69652 5.26366 5.19381 5.77313 4.57369 5.77313H1.12284C0.502711 5.77313 0 5.26366 0 4.63519V1.13794Z"
    transform="translate(1 9.11377)" fill="#9BA0A5" stroke="#9BA0A5" stroke-width="0.25"
    stroke-miterlimit="10" />
  <path fill-rule="evenodd" clip-rule="evenodd"
    d="M1.12284 0.758624C0.916128 0.758624 0.748557 0.928448 0.748557 1.13794V4.63519C0.748557 4.84468 0.916128 5.01451 1.12284 5.01451H4.57368C4.78039 5.01451 4.94796 4.84468 4.94796 4.63519V1.13794C4.94796 0.928448 4.78039 0.758624 4.57368 0.758624H1.12284ZM0 1.13794C0 0.509471 0.502711 0 1.12284 0H4.57368C5.19381 0 5.69652 0.509471 5.69652 1.13794V4.63519C5.69652 5.26366 5.19381 5.77313 4.57368 5.77313H1.12284C0.502711 5.77313 0 5.26366 0 4.63519V1.13794Z"
    transform="translate(17.3037 9.11377)" fill="#9BA0A5" stroke="#9BA0A5" stroke-width="0.25"
    stroke-miterlimit="10" />
  <path fill-rule="evenodd" clip-rule="evenodd"
    d="M1.12284 0.758624C0.916128 0.758624 0.748557 0.928448 0.748557 1.13794V4.63519C0.748557 4.84468 0.916128 5.01451 1.12284 5.01451H4.57369C4.78039 5.01451 4.94796 4.84468 4.94796 4.63519V1.13794C4.94796 0.928448 4.78039 0.758624 4.57369 0.758624H1.12284ZM0 1.13794C0 0.509471 0.502711 0 1.12284 0H4.57369C5.19381 0 5.69652 0.509471 5.69652 1.13794V4.63519C5.69652 5.26366 5.19381 5.77313 4.57369 5.77313H1.12284C0.502711 5.77313 0 5.26366 0 4.63519V1.13794Z"
    transform="translate(1 17.2268)" fill="#9BA0A5" stroke="#9BA0A5" stroke-width="0.25"
    stroke-miterlimit="10" />
  <path fill-rule="evenodd" clip-rule="evenodd"
    d="M1.12284 0.758624C0.916128 0.758624 0.748557 0.928448 0.748557 1.13794V4.63519C0.748557 4.84468 0.916128 5.01451 1.12284 5.01451H4.57369C4.78039 5.01451 4.94796 4.84468 4.94796 4.63519V1.13794C4.94796 0.928448 4.78039 0.758624 4.57369 0.758624H1.12284ZM0 1.13794C0 0.509471 0.502711 0 1.12284 0H4.57369C5.19381 0 5.69652 0.509471 5.69652 1.13794V4.63519C5.69652 5.26366 5.19381 5.77313 4.57369 5.77313H1.12284C0.502711 5.77313 0 5.26366 0 4.63519V1.13794Z"
    transform="translate(9.15186 17.2268)" fill="#9BA0A5" stroke="#9BA0A5" stroke-width="0.25"
    stroke-miterlimit="10" />
  <path fill-rule="evenodd" clip-rule="evenodd"
    d="M1.12284 0.758624C0.916128 0.758624 0.748557 0.928448 0.748557 1.13794V4.63519C0.748557 4.84468 0.916128 5.01451 1.12284 5.01451H4.57368C4.78039 5.01451 4.94796 4.84468 4.94796 4.63519V1.13794C4.94796 0.928448 4.78039 0.758624 4.57368 0.758624H1.12284ZM0 1.13794C0 0.509471 0.502711 0 1.12284 0H4.57368C5.19381 0 5.69652 0.509471 5.69652 1.13794V4.63519C5.69652 5.26366 5.19381 5.77313 4.57368 5.77313H1.12284C0.502711 5.77313 0 5.26366 0 4.63519V1.13794Z"
    transform="translate(17.3037 17.2268)" fill="#9BA0A5" stroke="#9BA0A5" stroke-width="0.25"
    stroke-miterlimit="10" />
  <path fill-rule="evenodd" clip-rule="evenodd"
    d="M1.07173 0.00116483C1.0887 0.000390272 1.10573 0 1.12284 0H1.17309C1.3798 0 1.54737 0.169824 1.54737 0.379312C1.54737 0.5888 1.3798 0.758624 1.17309 0.758624H1.12284C1.11697 0.758624 1.11117 0.758758 1.10542 0.75902C0.898919 0.768448 0.723977 0.606439 0.714675 0.397163C0.705372 0.187887 0.865231 0.0105925 1.07173 0.00116483ZM2.42373 0.379312C2.42373 0.169824 2.5913 0 2.79801 0H2.89852C3.10522 0 3.27279 0.169824 3.27279 0.379312C3.27279 0.5888 3.10522 0.758624 2.89852 0.758624H2.79801C2.5913 0.758624 2.42373 0.5888 2.42373 0.379312ZM4.14915 0.379312C4.14915 0.169824 4.31672 0 4.52343 0H4.57369C4.59079 0 4.60783 0.000390272 4.62479 0.00116483C4.83129 0.0105926 4.99115 0.187887 4.98185 0.397163C4.97254 0.606439 4.7976 0.768448 4.5911 0.75902C4.58536 0.758758 4.57955 0.758624 4.57369 0.758624H4.52343C4.31672 0.758624 4.14915 0.5888 4.14915 0.379312ZM0.391893 0.724286C0.598392 0.733713 0.758251 0.911008 0.748948 1.12028C0.748689 1.12611 0.748557 1.13199 0.748557 1.13794V1.18887C0.748557 1.39836 0.580987 1.56818 0.374278 1.56818C0.16757 1.56818 0 1.39836 0 1.18887V1.13794C0 1.1206 0.000385094 1.10334 0.00114937 1.08614C0.010452 0.876867 0.185394 0.714858 0.391893 0.724286ZM5.30463 0.724286C5.51113 0.714858 5.68607 0.876867 5.69537 1.08614C5.69614 1.10334 5.69652 1.1206 5.69652 1.13794V1.18887C5.69652 1.39836 5.52895 1.56818 5.32224 1.56818C5.11553 1.56818 4.94796 1.39836 4.94796 1.18887V1.13794C4.94796 1.13199 4.94783 1.12611 4.94757 1.12028C4.93827 0.911008 5.09813 0.733713 5.30463 0.724286ZM0.374278 2.45632C0.580987 2.45632 0.748557 2.62615 0.748557 2.83563V2.9375C0.748557 3.14698 0.580987 3.31681 0.374278 3.31681C0.16757 3.31681 0 3.14698 0 2.9375V2.83563C0 2.62615 0.16757 2.45632 0.374278 2.45632ZM5.32224 2.45632C5.52895 2.45632 5.69652 2.62615 5.69652 2.83563V2.9375C5.69652 3.14698 5.52895 3.31681 5.32224 3.31681C5.11553 3.31681 4.94796 3.14698 4.94796 2.9375V2.83563C4.94796 2.62615 5.11553 2.45632 5.32224 2.45632ZM0.374278 4.20495C0.580987 4.20495 0.748557 4.37477 0.748557 4.58426V4.63519C0.748557 4.64114 0.748689 4.64702 0.748948 4.65285C0.758251 4.86212 0.598392 5.03942 0.391893 5.04884C0.185394 5.05827 0.010452 4.89626 0.00114937 4.68699C0.000385094 4.66979 0 4.65253 0 4.63519V4.58426C0 4.37477 0.16757 4.20495 0.374278 4.20495ZM5.32224 4.20495C5.52895 4.20495 5.69652 4.37477 5.69652 4.58426V4.63519C5.69652 4.65253 5.69614 4.66979 5.69537 4.68699C5.68607 4.89626 5.51113 5.05827 5.30463 5.04884C5.09813 5.03942 4.93827 4.86212 4.94757 4.65285C4.94783 4.64702 4.94796 4.64114 4.94796 4.63519V4.58426C4.94796 4.37477 5.11553 4.20495 5.32224 4.20495ZM0.714675 5.37597C0.723977 5.16669 0.898919 5.00468 1.10542 5.01411C1.11117 5.01437 1.11697 5.01451 1.12284 5.01451H1.17309C1.3798 5.01451 1.54737 5.18433 1.54737 5.39382C1.54737 5.60331 1.3798 5.77313 1.17309 5.77313H1.12284C1.10573 5.77313 1.0887 5.77274 1.07173 5.77197C0.865231 5.76254 0.705372 5.58524 0.714675 5.37597ZM4.98185 5.37597C4.99115 5.58524 4.83129 5.76254 4.62479 5.77197C4.60783 5.77274 4.59079 5.77313 4.57369 5.77313H4.52343C4.31672 5.77313 4.14915 5.60331 4.14915 5.39382C4.14915 5.18433 4.31672 5.01451 4.52343 5.01451H4.57369C4.57955 5.01451 4.58536 5.01437 4.5911 5.01411C4.7976 5.00468 4.97254 5.16669 4.98185 5.37597ZM2.42373 5.39382C2.42373 5.18433 2.5913 5.01451 2.79801 5.01451H2.89852C3.10522 5.01451 3.27279 5.18433 3.27279 5.39382C3.27279 5.60331 3.10522 5.77313 2.89852 5.77313H2.79801C2.5913 5.77313 2.42373 5.60331 2.42373 5.39382Z"
    transform="translate(9.15186 9.11377)" fill="#9BA0A5" stroke="#9BA0A5" stroke-width="0.25"
    stroke-miterlimit="10" />
</svg>