<svg width="88" height="22" viewBox="0 0 88 22" fill="none" xmlns="http://www.w3.org/2000/svg">
<g clip-path="url(#clip0_983_21112)">
<path d="M26.3472 14.8544C27.9613 14.8544 29.1942 14.3178 29.817 13.8451V11.8519H29.8043C28.8764 12.5546 27.8724 13.0657 26.487 13.0657C24.517 13.0657 23.5257 11.8136 23.5257 10.2165C23.5257 8.54274 24.5933 7.29063 26.4997 7.29063C27.9105 7.29063 28.851 7.91669 29.8043 8.55552H29.817V6.56236C29.1687 6.05129 27.9995 5.50189 26.5379 5.50189C23.208 5.50189 21.5176 7.75059 21.5176 10.2293C21.5176 12.6568 22.9283 14.8544 26.3472 14.8544Z" fill="white"/>
<path d="M35.7695 14.6495H42.7344L42.7979 12.8352H37.7268V5.70578H35.7695V14.6495Z" fill="white"/>
<path d="M52.4439 14.8544C55.4434 14.8544 57.3371 13.0146 57.3371 10.1781C57.3371 7.3417 55.4434 5.50186 52.4439 5.50186C49.4445 5.50186 47.5508 7.3417 47.5508 10.1781C47.5508 13.0146 49.4445 14.8544 52.4439 14.8544ZM52.4313 13.0784C50.5884 13.0784 49.5588 11.9797 49.5588 10.1781C49.5588 8.37662 50.6138 7.27782 52.4566 7.27782C54.2995 7.27782 55.329 8.37662 55.329 10.1781C55.329 11.9797 54.2741 13.0784 52.4313 13.0784Z" fill="white"/>
<path d="M67.3964 14.8539C69.7857 14.8539 71.6795 13.8701 71.6795 11.1359V5.70578H69.7222V11.1742C69.7222 12.5924 68.6165 13.0396 67.4218 13.0396C66.2271 13.0396 65.1214 12.5669 65.1214 11.1103V5.70578H63.1641V11.1998C63.1641 13.8573 65.0069 14.8539 67.3964 14.8539Z" fill="white"/>
<path d="M78.0254 14.6495H82.3848C85.1809 14.6495 86.8586 12.9502 86.8586 10.1649C86.8586 7.36675 85.1809 5.70578 82.3848 5.70578H78.0254V14.6495ZM79.9826 12.8735V7.48174H82.3721C83.948 7.48174 84.8504 8.35055 84.8504 10.1904C84.8504 12.043 83.948 12.8735 82.3721 12.8735H79.9826Z" fill="white"/>
<path d="M21.6367 19.2131H23.0876C23.5643 19.2131 23.8648 19.4464 23.8648 19.9007C23.8648 20.2076 23.7612 20.4163 23.471 20.5269C23.7715 20.6618 23.9063 20.846 23.9063 21.1776C23.9063 21.7423 23.5436 21.951 23.0358 21.951H21.6367V19.2131ZM22.9114 20.3058C23.0979 20.3058 23.1809 20.2322 23.1809 20.0603C23.1809 19.9007 23.0979 19.827 22.9114 19.827H22.3207V20.3058H22.9114ZM22.9425 21.3248C23.1498 21.3248 23.2223 21.2512 23.2223 21.067C23.2223 20.8951 23.1394 20.8092 22.9425 20.8092H22.3207V21.3248H22.9425Z" fill="#808080"/>
<path d="M25.5433 21.0671L24.3594 19.2132H25.2776L25.9421 20.3058H25.9783L26.6548 19.2132H27.5368L26.3528 21.0671V21.951H25.5433V21.0671Z" fill="#808080"/>
<path d="M29.8066 19.2132H31.471C32.1645 19.2132 32.5301 19.606 32.5301 20.2322C32.5301 20.9443 32.0637 21.2758 31.4079 21.2758H30.6515V21.951H29.8066V19.2132ZM31.3197 20.6251C31.5845 20.6251 31.698 20.4655 31.698 20.2444C31.698 19.9989 31.5719 19.8639 31.3197 19.8639H30.6641V20.6251H31.3197Z" fill="#808080"/>
<path d="M33.4736 19.2132H34.7784L35.7087 21.951H34.863L34.6697 21.3863H33.5582L33.3649 21.951H32.5312L33.4736 19.2132ZM33.7515 20.7601H34.4764L34.1864 19.9007H34.0415L33.7515 20.7601Z" fill="#808080"/>
<path d="M36.6172 19.2132H37.4269V21.2389H38.8867L38.8499 21.951H36.6172V19.2132Z" fill="#808080"/>
<path d="M39.3398 20.5821C39.3398 19.7468 39.8738 19.2132 40.7069 19.2132C41.5399 19.2132 42.0633 19.7468 42.0633 20.5821C42.0633 21.4174 41.5399 21.951 40.7069 21.951C39.8738 21.951 39.3398 21.429 39.3398 20.5821ZM41.3584 20.5821C41.3584 20.1296 41.1234 19.8745 40.7069 19.8745C40.2904 19.8745 40.0554 20.1412 40.0554 20.5821C40.0554 21.0346 40.2904 21.2897 40.7069 21.2897C41.1127 21.3013 41.3584 21.0346 41.3584 20.5821Z" fill="#808080"/>
<path d="M45.278 19.2131H46.5756L47.5095 21.951H46.6605L46.4665 21.3863H45.3628L45.1688 21.951H44.332L45.278 19.2131ZM45.557 20.7601H46.2846L45.9935 19.9007H45.848L45.557 20.7601Z" fill="#808080"/>
<path d="M47.9648 19.2131H48.7868V21.2389H50.2344L50.2098 21.951H47.9648V19.2131Z" fill="#808080"/>
<path d="M51.4813 19.913H50.6875L50.7079 19.2132H52.9367L52.957 19.913H52.1632V21.951H51.4813V19.913Z" fill="#808080"/>
<path d="M53.8672 20.5821C53.8672 19.7352 54.3926 19.2132 55.2289 19.2132C56.0653 19.2132 56.5907 19.7468 56.5907 20.5821C56.5907 21.4174 56.0653 21.951 55.2289 21.951C54.3926 21.951 53.8672 21.429 53.8672 20.5821ZM55.8829 20.5821C55.8829 20.1296 55.6471 19.8745 55.2289 19.8745C54.8108 19.8745 54.5748 20.1412 54.5748 20.5821C54.5748 21.0346 54.8108 21.2897 55.2289 21.2897C55.6363 21.3013 55.8829 21.0346 55.8829 20.5821Z" fill="#808080"/>
<path d="M58.8594 19.2132H59.68L60.8217 20.7601H60.8336V19.2132H61.5828V21.951H60.786L59.6205 20.3549H59.6086V21.951H58.8594V19.2132Z" fill="#808080"/>
<path d="M62.4902 19.2131H65.1324L65.1595 19.8762H63.3845V20.2444H64.7801V20.8583H63.3845V21.2757H65.2137L65.1866 21.951H62.4902V19.2131Z" fill="#808080"/>
<path d="M66.6144 19.9129H65.666L65.7025 19.2131H68.3531L68.3896 19.9129H67.4412V21.951H66.6144V19.9129Z" fill="#808080"/>
<path d="M68.8438 19.2131H69.7107L70.1441 21.1038H70.1802L70.7461 19.2131H71.5408L72.0946 21.1038H72.1307L72.5642 19.2131H73.3829L72.6846 21.951H71.6251L71.1314 20.2936H71.1074L70.6137 21.951H69.5541L68.8438 19.2131Z" fill="#808080"/>
<path d="M73.8379 20.5821C73.8379 19.7468 74.4508 19.2132 75.4266 19.2132C76.4023 19.2132 77.0153 19.7468 77.0153 20.5821C77.0153 21.4174 76.4023 21.951 75.4266 21.951C74.4508 21.951 73.8379 21.429 73.8379 20.5821ZM76.1896 20.5821C76.1896 20.1296 75.9144 19.8744 75.4266 19.8744C74.9387 19.8744 74.6635 20.1412 74.6635 20.5821C74.6635 21.0346 74.9387 21.2897 75.4266 21.2897C75.9144 21.3013 76.1896 21.0346 76.1896 20.5821Z" fill="#808080"/>
<path d="M77.9219 19.2132H79.4747C80.1795 19.2132 80.5259 19.5569 80.5259 20.1953C80.5259 20.6373 80.3467 20.932 80.0123 21.0671L80.6453 21.951H79.7376L79.2478 21.2267H78.7222V21.951H77.9219V19.2132ZM79.3672 20.5882C79.63 20.5882 79.7256 20.4409 79.7256 20.2322C79.7256 20.0235 79.63 19.8762 79.3672 19.8762H78.7222V20.5882H79.3672Z" fill="#808080"/>
<path d="M81.0996 19.2132H81.8599V20.2199H82.1663L82.9039 19.2132H83.7663L82.7904 20.5269L83.8231 21.9387L83.8117 21.951H82.9266L82.1663 20.8951H81.8599V21.951H81.0996V19.2132Z" fill="#808080"/>
<path d="M84.7541 21.7171V21.0067C85.156 21.228 85.5577 21.3328 85.8944 21.3328C86.155 21.3328 86.2853 21.2629 86.2853 21.1348C86.2853 21.0067 86.1984 20.9718 85.6772 20.8786C85.1125 20.7854 84.7324 20.5991 84.7324 20.075C84.7324 19.5859 85.1343 19.2132 85.9052 19.2132C86.2201 19.2132 86.5459 19.2831 86.8391 19.4228V20.1333C86.5568 19.9585 86.1658 19.8421 85.8509 19.8421C85.5794 19.8421 85.46 19.912 85.46 20.0284C85.46 20.1798 85.6337 20.1915 86.0573 20.273C86.6219 20.3778 87.002 20.5525 87.002 21.0998C87.002 21.5308 86.7088 21.95 85.8509 21.95C85.4383 21.9617 85.1017 21.8685 84.7541 21.7171Z" fill="#808080"/>
<path d="M11.7715 14.6517V4.50983L17.0987 14.6517H11.7715Z" fill="#54BEE4"/>
<path d="M11.7689 4.51035L6.44173 14.6522H11.7689V21.9515L0.757812 11L11.7689 0.0485535V4.51035Z" fill="#54BEE4"/>
</g>
<defs>
<clipPath id="clip0_983_21112">
<rect width="86.7" height="21.9029" fill="white" transform="translate(0.757812 0.0485535)"/>
</clipPath>
</defs>
</svg>
