<svg width="34" height="23" viewBox="0 0 34 23" fill="none" xmlns="http://www.w3.org/2000/svg">
  <path
    d="M32.5238 3.59839C32.1463 2.18871 31.0137 1.07581 29.5791 0.68629C26.9931 0 16.6111 0 16.6111 0C16.6111 0 6.22917 0 3.62424 0.68629C2.18965 1.05726 1.07595 2.17016 0.679545 3.59839C0 6.15806 0 11.5 0 11.5C0 11.5 0 16.8419 0.698422 19.4016C1.07595 20.8113 2.20852 21.9242 3.64312 22.3137C6.22917 23 16.6111 23 16.6111 23C16.6111 23 26.9931 23 29.598 22.3137C31.0326 21.9427 32.1463 20.8298 32.5427 19.4016C33.2222 16.8419 33.2222 11.5 33.2222 11.5C33.2222 11.5 33.2222 6.15806 32.5238 3.59839ZM13.2134 16.3597V6.64032L21.8965 11.5L13.2134 16.3597Z"
    transform="translate(0.666504)" fill="white"></path>
</svg>