<svg width="29" height="23" viewBox="0 0 29 23" fill="none" xmlns="http://www.w3.org/2000/svg">
  <path
    d="M8.75744 23C19.2775 23 25.034 14.1486 25.034 6.48573C25.034 6.23671 25.034 5.9877 25.0229 5.73868C26.1385 4.92372 27.109 3.8937 27.8788 2.72785C26.8524 3.19193 25.748 3.49754 24.5878 3.64469C25.7703 2.93159 26.6739 1.78839 27.109 0.430118C26.0046 1.09793 24.7774 1.57333 23.4722 1.83366C22.4235 0.701772 20.9398 0 19.2998 0C16.1427 0 13.5768 2.60335 13.5768 5.80659C13.5768 6.25935 13.6326 6.70079 13.7219 7.13091C8.96941 6.89321 4.75245 4.57283 1.92998 1.06398C1.43912 1.92421 1.16022 2.92028 1.16022 3.98425C1.16022 5.99902 2.17542 7.77608 3.70378 8.81742C2.76668 8.78346 1.88536 8.52313 1.1156 8.09301C1.1156 8.11565 1.1156 8.13829 1.1156 8.17224C1.1156 10.9793 3.09021 13.3337 5.7007 13.8656C5.221 14.0015 4.71898 14.0694 4.19465 14.0694C3.8265 14.0694 3.46951 14.0354 3.12367 13.9675C3.84881 16.2766 5.96845 17.9518 8.46739 17.997C6.50393 19.5591 4.03846 20.4872 1.36103 20.4872C0.903634 20.4872 0.446239 20.4646 0 20.408C2.52125 22.0379 5.53336 23 8.75744 23Z"
    transform="translate(0.166504)" fill="currentColor"></path>
</svg>