<svg width="26" height="25" viewBox="0 0 26 25" fill="none" xmlns="http://www.w3.org/2000/svg">
  <path
    d="M23.125 0H1.875C0.833333 0 0 0.833333 0 1.80556V23.1944C0 24.1667 0.833333 25 1.875 25H23.1944C24.2361 25 25.0694 24.1667 25.0694 23.1944V1.80556C25 0.833333 24.1667 0 23.125 0ZM7.43056 21.3194H3.68056V9.375H7.36111V21.3194H7.43056ZM5.55556 7.70833C4.375 7.70833 3.40278 6.73611 3.40278 5.55556C3.40278 4.375 4.375 3.47222 5.55556 3.47222C6.73611 3.47222 7.70833 4.44444 7.70833 5.625C7.70833 6.80556 6.73611 7.70833 5.55556 7.70833ZM21.3194 21.3194H17.6389V15.4861C17.6389 14.0972 17.6389 12.2917 15.6944 12.2917C13.75 12.2917 13.4722 13.8194 13.4722 15.3472V21.25H9.72222V9.375H13.2639V10.9722H13.3333C13.8194 10 15.0694 9.02778 16.875 9.02778C20.625 9.02778 21.3194 11.5278 21.3194 14.7222V21.3194V21.3194Z"
    transform="translate(0.666504)" fill="white"></path>
</svg>