<svg width="25" height="25" viewBox="0 0 25 25" fill="none" xmlns="http://www.w3.org/2000/svg">
  <path
    d="M23.6184 0H1.38158C1.01516 0 0.663751 0.145559 0.404655 0.404655C0.145559 0.663751 0 1.01516 0 1.38158L0 23.6184C0 23.9848 0.145559 24.3362 0.404655 24.5953C0.663751 24.8544 1.01516 25 1.38158 25H13.3553V15.3509H10.0877V11.5482H13.3377V8.77193C13.3377 5.53947 15.307 3.7807 18.1886 3.7807C19.1675 3.78361 20.1455 3.83925 21.1184 3.94737V7.32018H19.1272C17.5614 7.32018 17.2588 8.0614 17.2588 9.15351V11.5658H21.0088L20.5219 15.3509H17.2588V25H23.6184C23.9848 25 24.3362 24.8544 24.5953 24.5953C24.8544 24.3362 25 23.9848 25 23.6184V1.38158C25 1.01516 24.8544 0.663751 24.5953 0.404655C24.3362 0.145559 23.9848 0 23.6184 0V0Z"
    fill="currentColor"></path>
</svg>