<svg width="28" height="20" viewBox="0 0 28 20">
    <g id="Canvas" fill="none">
        <g id="Newsroom">
            <g id="Icon_library_News">
                <g id="Vector (Stroke)">
                    <path fill-rule="evenodd" clip-rule="evenodd" d="M 0.702363 0.810966L 4.0436 4.66884L 0 4.66884L 0 0L 0.702363 0.810966ZM 0.8 2.14567L 0.8 3.86884L 2.2924 3.86884L 0.8 2.14567Z" transform="translate(23.4319 1.31543)" fill="#9BA0A5"/>
                    <path d="M 4.0436 4.66884L 4.0436 4.71884L 4.15305 4.71884L 4.08139 4.6361L 4.0436 4.66884ZM 0 4.66884L -0.05 4.66884L -0.05 4.71884L 0 4.71884L 0 4.66884ZM 0 0L 0.0377954 -0.0327339L -0.05 -0.134105L -0.05 0L 0 0ZM 0.8 3.86884L 0.75 3.86884L 0.75 3.91884L 0.8 3.91884L 0.8 3.86884ZM 0.8 2.14567L 0.837795 2.11294L 0.75 2.01157L 0.75 2.14567L 0.8 2.14567ZM 2.2924 3.86884L 2.2924 3.91884L 2.40185 3.91884L 2.3302 3.8361L 2.2924 3.86884ZM 0.432733 1.11063L 0.735097 0.848761L 0.669629 0.77317L 0.367265 1.03504L 0.432733 1.11063ZM 0.740158 0.778232L 0.0377954 -0.0327339L -0.0377954 0.0327339L 0.664568 0.8437L 0.740158 0.778232ZM 0.85 3.86884L 0.85 2.14567L 0.75 2.14567L 0.75 3.86884L 0.85 3.86884ZM 2.2924 3.81884L 0.8 3.81884L 0.8 3.91884L 2.2924 3.91884L 2.2924 3.81884ZM 0.762205 2.17841L 2.25461 3.90157L 2.3302 3.8361L 0.837795 2.11294L 0.762205 2.17841ZM 4.08139 4.6361L 0.740158 0.778232L 0.664568 0.8437L 4.0058 4.70157L 4.08139 4.6361ZM 0 4.71884L 4.0436 4.71884L 4.0436 4.61884L 0 4.61884L 0 4.71884ZM -0.05 0L -0.05 4.66884L 0.05 4.66884L 0.05 0L -0.05 0Z" transform="translate(23.4319 1.31543)" fill="#9BA0A5"/>
                </g>
                <g id="Vector (Stroke)_2">
                    <path fill-rule="evenodd" clip-rule="evenodd" d="M 0 0.2C 0 0.0895431 0.0895431 0 0.2 0L 0.414 0C 0.524457 0 0.614 0.0895431 0.614 0.2C 0.614 0.310457 0.524457 0.4 0.414 0.4L 0.4 0.4L 0.4 0.401C 0.4 0.511457 0.310457 0.601 0.2 0.601C 0.0895431 0.601 0 0.511457 0 0.401L 0 0.2ZM 1.498 0.2C 1.498 0.0895431 1.58754 0 1.698 0L 1.912 0C 2.02246 0 2.112 0.0895431 2.112 0.2C 2.112 0.310457 2.02246 0.4 1.912 0.4L 1.698 0.4C 1.58754 0.4 1.498 0.310457 1.498 0.2ZM 0.2 1.407C 0.310457 1.407 0.4 1.49654 0.4 1.607L 0.4 2.009C 0.4 2.11946 0.310457 2.209 0.2 2.209C 0.0895431 2.209 0 2.11946 0 2.009L 0 1.607C 0 1.49654 0.0895431 1.407 0.2 1.407ZM 0.2 3.015C 0.310457 3.015 0.4 3.10454 0.4 3.215L 0.4 3.617C 0.4 3.72746 0.310457 3.817 0.2 3.817C 0.0895431 3.817 0 3.72746 0 3.617L 0 3.215C 0 3.10454 0.0895431 3.015 0.2 3.015ZM 0.2 4.623C 0.310457 4.623 0.4 4.71254 0.4 4.823L 0.4 5.225C 0.4 5.33546 0.310457 5.425 0.2 5.425C 0.0895431 5.425 0 5.33546 0 5.225L 0 4.823C 0 4.71254 0.0895431 4.623 0.2 4.623ZM 0.2 6.231C 0.310457 6.231 0.4 6.32054 0.4 6.431L 0.4 6.833C 0.4 6.94346 0.310457 7.033 0.2 7.033C 0.0895431 7.033 0 6.94346 0 6.833L 0 6.431C 0 6.32054 0.0895431 6.231 0.2 6.231ZM 0.2 7.839C 0.310457 7.839 0.4 7.92855 0.4 8.039L 0.4 8.441C 0.4 8.55146 0.310457 8.641 0.2 8.641C 0.0895431 8.641 0 8.55146 0 8.441L 0 8.039C 0 7.92855 0.0895431 7.839 0.2 7.839ZM 0.2 9.447C 0.310457 9.447 0.4 9.53655 0.4 9.647L 0.4 9.848C 0.4 9.95846 0.310457 10.048 0.2 10.048C 0.0895431 10.048 0 9.95846 0 9.848L 0 9.647C 0 9.53655 0.0895431 9.447 0.2 9.447Z" transform="translate(3.32007 5.78442)" fill="#9BA0A5"/>
                    <path d="M 0.2 0C 0.0895431 0 0 0.0895431 0 0.2L 0 0.401C 0 0.511457 0.0895431 0.601 0.2 0.601C 0.310457 0.601 0.4 0.511457 0.4 0.401L 0.4 0.4L 0.414 0.4C 0.524457 0.4 0.614 0.310457 0.614 0.2C 0.614 0.0895431 0.524457 0 0.414 0L 0.2 0ZM 1.698 0C 1.58754 0 1.498 0.0895431 1.498 0.2C 1.498 0.310457 1.58754 0.4 1.698 0.4L 1.912 0.4C 2.02246 0.4 2.112 0.310457 2.112 0.2C 2.112 0.0895431 2.02246 0 1.912 0L 1.698 0ZM 0.4 1.607C 0.4 1.49654 0.310457 1.407 0.2 1.407C 0.0895431 1.407 0 1.49654 0 1.607L 0 2.009C 0 2.11946 0.0895431 2.209 0.2 2.209C 0.310457 2.209 0.4 2.11946 0.4 2.009L 0.4 1.607ZM 0.4 3.215C 0.4 3.10454 0.310457 3.015 0.2 3.015C 0.0895431 3.015 0 3.10454 0 3.215L 0 3.617C 0 3.72746 0.0895431 3.817 0.2 3.817C 0.310457 3.817 0.4 3.72746 0.4 3.617L 0.4 3.215ZM 0.4 4.823C 0.4 4.71254 0.310457 4.623 0.2 4.623C 0.0895431 4.623 0 4.71254 0 4.823L 0 5.225C 0 5.33546 0.0895431 5.425 0.2 5.425C 0.310457 5.425 0.4 5.33546 0.4 5.225L 0.4 4.823ZM 0.4 6.431C 0.4 6.32054 0.310457 6.231 0.2 6.231C 0.0895431 6.231 0 6.32054 0 6.431L 0 6.833C 0 6.94346 0.0895431 7.033 0.2 7.033C 0.310457 7.033 0.4 6.94346 0.4 6.833L 0.4 6.431ZM 0.4 8.039C 0.4 7.92855 0.310457 7.839 0.2 7.839C 0.0895431 7.839 0 7.92855 0 8.039L 0 8.441C 0 8.55146 0.0895431 8.641 0.2 8.641C 0.310457 8.641 0.4 8.55146 0.4 8.441L 0.4 8.039ZM 0.4 9.647C 0.4 9.53655 0.310457 9.447 0.2 9.447C 0.0895431 9.447 0 9.53655 0 9.647L 0 9.848C 0 9.95846 0.0895431 10.048 0.2 10.048C 0.310457 10.048 0.4 9.95846 0.4 9.848L 0.4 9.647Z" stroke-width="0.1" stroke-miterlimit="10" transform="translate(3.32007 5.78442)" stroke="#9BA0A5"/>
                </g>
                <g id="Vector (Stroke)_3">
                    <path fill-rule="evenodd" clip-rule="evenodd" d="M 8.42 0.8L 0 0.8L 0 0L 8.42 0L 8.42 0.8Z" transform="translate(7.41193 8.97192)" fill="#9BA0A5"/>
                    <path d="M 0 0.8L 8.42 0.8L 8.42 0L 0 0L 0 0.8Z" stroke-width="0.1" stroke-miterlimit="10" transform="translate(7.41193 8.97192)" stroke="#9BA0A5"/>
                </g>
                <g id="Vector (Stroke)_4">
                    <path fill-rule="evenodd" clip-rule="evenodd" d="M 8.42 0.8L 0 0.8L 0 0L 8.42 0L 8.42 0.8Z" transform="translate(7.41193 11.0515)" fill="#9BA0A5"/>
                    <path d="M 0 0.8L 8.42 0.8L 8.42 0L 0 0L 0 0.8Z" stroke-width="0.1" stroke-miterlimit="10" transform="translate(7.41193 11.0515)" stroke="#9BA0A5"/>
                </g>
                <g id="Vector (Stroke)_5">
                    <path fill-rule="evenodd" clip-rule="evenodd" d="M 8.42 0.8L 0 0.8L 0 0L 8.42 0L 8.42 0.8Z" transform="translate(7.41193 13.1321)" fill="#9BA0A5"/>
                    <path d="M 0 0.8L 8.42 0.8L 8.42 0L 0 0L 0 0.8Z" stroke-width="0.1" stroke-miterlimit="10" transform="translate(7.41193 13.1321)" stroke="#9BA0A5"/>
                </g>
                <g id="Vector (Stroke)_6">
                    <path fill-rule="evenodd" clip-rule="evenodd" d="M 8.42 0.8L 0 0.8L 0 0L 8.42 0L 8.42 0.8Z" transform="translate(7.41193 15.2122)" fill="#9BA0A5"/>
                    <path d="M 0 0.8L 8.42 0.8L 8.42 0L 0 0L 0 0.8Z" stroke-width="0.1" stroke-miterlimit="10" transform="translate(7.41193 15.2122)" stroke="#9BA0A5"/>
                </g>
                <g id="Vector (Stroke)_7">
                    <path fill-rule="evenodd" clip-rule="evenodd" d="M 8.42 0.8L 0 0.8L 0 0L 8.42 0L 8.42 0.8Z" transform="translate(17.3799 8.97192)" fill="#9BA0A5"/>
                    <path d="M 0 0.8L 8.42 0.8L 8.42 0L 0 0L 0 0.8Z" stroke-width="0.1" stroke-miterlimit="10" transform="translate(17.3799 8.97192)" stroke="#9BA0A5"/>
                </g>
                <g id="Vector (Stroke)_8">
                    <path fill-rule="evenodd" clip-rule="evenodd" d="M 8.42 0.8L 0 0.8L 0 0L 8.42 0L 8.42 0.8Z" transform="translate(17.3799 11.0515)" fill="#9BA0A5"/>
                    <path d="M 0 0.8L 8.42 0.8L 8.42 0L 0 0L 0 0.8Z" stroke-width="0.1" stroke-miterlimit="10" transform="translate(17.3799 11.0515)" stroke="#9BA0A5"/>
                </g>
                <g id="Vector (Stroke)_9">
                    <path fill-rule="evenodd" clip-rule="evenodd" d="M 8.42 0.8L 0 0.8L 0 0L 8.42 0L 8.42 0.8Z" transform="translate(17.3799 13.1321)" fill="#9BA0A5"/>
                    <path d="M 0 0.8L 8.42 0.8L 8.42 0L 0 0L 0 0.8Z" stroke-width="0.1" stroke-miterlimit="10" transform="translate(17.3799 13.1321)" stroke="#9BA0A5"/>
                </g>
                <g id="Vector (Stroke)_10">
                    <path fill-rule="evenodd" clip-rule="evenodd" d="M 5.772 0.8L 0 0.8L 0 0L 5.772 0L 5.772 0.8Z" transform="translate(17.3799 15.2122)" fill="#9BA0A5"/>
                    <path d="M 0 0.8L 5.772 0.8L 5.772 0L 0 0L 0 0.8Z" stroke-width="0.1" stroke-miterlimit="10" transform="translate(17.3799 15.2122)" stroke="#9BA0A5"/>
                </g>
                <g id="&#60;Path&#62;">
                    <path d="M 0.630861 0.28402L 0.562861 0.640019C 0.546673 0.716682 0.505088 0.785639 0.444835 0.835728C 0.384583 0.885817 0.309191 0.914108 0.230861 0.91602C 0.195724 0.915847 0.161085 0.907696 0.129559 0.892181C 0.0980328 0.876666 0.0704428 0.854192 0.0488706 0.826457C 0.0272985 0.798721 0.0123079 0.766448 0.0050306 0.732072C -0.00224673 0.697697 -0.00162093 0.662118 0.00686089 0.628019L 0.0748609 0.276019C 0.0896812 0.198687 0.130882 0.128897 0.191431 0.0785608C 0.25198 0.028225 0.328123 0.000465027 0.406861 1.96435e-05C 0.441822 -0.000438739 0.47642 0.00714941 0.507979 0.0221975C 0.539539 0.0372456 0.567215 0.0593505 0.588868 0.0868029C 0.61052 0.114255 0.625569 0.146319 0.63285 0.180517C 0.640132 0.214714 0.639451 0.250128 0.630861 0.28402" transform="translate(12.9332 5.052)" fill="#9BA0A5"/>
                    <path d="M 0.630861 0.28402L 0.562861 0.640019C 0.546673 0.716682 0.505088 0.785639 0.444835 0.835728C 0.384583 0.885817 0.309191 0.914108 0.230861 0.91602C 0.195724 0.915847 0.161085 0.907696 0.129559 0.892181C 0.0980328 0.876666 0.0704428 0.854192 0.0488706 0.826457C 0.0272985 0.798721 0.0123079 0.766448 0.0050306 0.732072C -0.00224673 0.697697 -0.00162093 0.662118 0.00686089 0.628019L 0.0748609 0.276019C 0.0896812 0.198687 0.130882 0.128897 0.191431 0.0785608C 0.25198 0.028225 0.328123 0.000465027 0.406861 1.96435e-05C 0.441822 -0.000438739 0.47642 0.00714941 0.507979 0.0221975C 0.539539 0.0372456 0.567215 0.0593505 0.588868 0.0868029C 0.61052 0.114255 0.625569 0.146319 0.63285 0.180517C 0.640132 0.214714 0.639451 0.250128 0.630861 0.28402" stroke-width="0.1" stroke-miterlimit="10" transform="translate(12.9332 5.052)" stroke="#9BA0A5"/>
                </g>
                <g id="&#60;Path&#62;_2">
                    <path d="M 0.799012 0.27602L 0.563012 1.52402C 0.54833 1.60069 0.507715 1.66997 0.447988 1.72022C 0.388261 1.77048 0.313059 1.79866 0.235012 1.80002C 0.199717 1.80111 0.164653 1.79398 0.132583 1.7792C 0.100512 1.76442 0.0723125 1.7424 0.0502065 1.71486C 0.0281005 1.68733 0.012692 1.65503 0.00519609 1.62053C -0.00229978 1.58602 -0.00167775 1.55024 0.00701188 1.51602L 0.243012 0.27602C 0.257832 0.198688 0.299033 0.128897 0.359581 0.078561C 0.42013 0.0282251 0.496273 0.000464814 0.575011 1.94299e-05C 0.609972 -0.000438953 0.64457 0.00714958 0.67613 0.0221977C 0.707689 0.0372458 0.735365 0.0593507 0.757018 0.086803C 0.778671 0.114255 0.79372 0.14632 0.801001 0.180517C 0.808283 0.214714 0.807602 0.250127 0.799012 0.284019" transform="translate(13.709 5.07642)" fill="#9BA0A5"/>
                    <path d="M 0.799012 0.27602L 0.563012 1.52402C 0.54833 1.60069 0.507715 1.66997 0.447988 1.72022C 0.388261 1.77048 0.313059 1.79866 0.235012 1.80002C 0.199717 1.80111 0.164653 1.79398 0.132583 1.7792C 0.100512 1.76442 0.0723125 1.7424 0.0502065 1.71486C 0.0281005 1.68733 0.012692 1.65503 0.00519609 1.62053C -0.00229978 1.58602 -0.00167775 1.55024 0.00701188 1.51602L 0.243012 0.27602C 0.257832 0.198688 0.299033 0.128897 0.359581 0.078561C 0.42013 0.0282251 0.496273 0.000464814 0.575011 1.94299e-05C 0.609972 -0.000438953 0.64457 0.00714958 0.67613 0.0221977C 0.707689 0.0372458 0.735365 0.0593507 0.757018 0.086803C 0.778671 0.114255 0.79372 0.14632 0.801001 0.180517C 0.808283 0.214714 0.807602 0.250127 0.799012 0.284019" stroke-width="0.1" stroke-miterlimit="10" transform="translate(13.709 5.07642)" stroke="#9BA0A5"/>
                </g>
                <g id="&#60;Path&#62;_3">
                    <path d="M 1.01223 0.28402L 0.560228 2.66402C 0.545546 2.74069 0.504931 2.80997 0.445204 2.86022C 0.385477 2.91048 0.310275 2.93866 0.232228 2.94002C 0.197007 2.94131 0.161978 2.93428 0.129988 2.91949C 0.0979976 2.9047 0.0699491 2.88256 0.0481227 2.85489C 0.0262964 2.82722 0.0113081 2.79479 0.00437579 2.76023C -0.00255648 2.72567 -0.00123715 2.68997 0.0082271 2.65602L 0.452227 0.276019C 0.468415 0.199357 0.51 0.1304 0.570253 0.0803109C 0.630505 0.0302218 0.705898 0.00193162 0.784228 1.95825e-05C 0.819189 -0.0004388 0.853785 0.00714935 0.885345 0.0221975C 0.916905 0.0372456 0.944582 0.0593504 0.966235 0.0868028C 0.987887 0.114255 1.00294 0.14632 1.01022 0.180517C 1.0175 0.214714 1.01682 0.250128 1.00823 0.28402" transform="translate(14.5477 4.51587)" fill="#9BA0A5"/>
                    <path d="M 1.01223 0.28402L 0.560228 2.66402C 0.545546 2.74069 0.504931 2.80997 0.445204 2.86022C 0.385477 2.91048 0.310275 2.93866 0.232228 2.94002C 0.197007 2.94131 0.161978 2.93428 0.129988 2.91949C 0.0979976 2.9047 0.0699491 2.88256 0.0481227 2.85489C 0.0262964 2.82722 0.0113081 2.79479 0.00437579 2.76023C -0.00255648 2.72567 -0.00123715 2.68997 0.0082271 2.65602L 0.452227 0.276019C 0.468415 0.199357 0.51 0.1304 0.570253 0.0803109C 0.630505 0.0302218 0.705898 0.00193162 0.784228 1.95825e-05C 0.819189 -0.0004388 0.853785 0.00714935 0.885345 0.0221975C 0.916905 0.0372456 0.944582 0.0593504 0.966235 0.0868028C 0.987887 0.114255 1.00294 0.14632 1.01022 0.180517C 1.0175 0.214714 1.01682 0.250128 1.00823 0.28402" stroke-width="0.1" stroke-miterlimit="10" transform="translate(14.5477 4.51587)" stroke="#9BA0A5"/>
                </g>
                <g id="&#60;Path&#62;_4">
                    <path d="M 1.17086 0.284L 0.56286 3.484C 0.547344 3.56099 0.505948 3.63036 0.445551 3.68057C 0.385154 3.73078 0.309394 3.75881 0.230861 3.76C 0.195724 3.75983 0.161086 3.75168 0.129559 3.73616C 0.0980332 3.72065 0.0704432 3.69817 0.048871 3.67044C 0.0272988 3.6427 0.0123083 3.61043 0.00503097 3.57605C -0.00224637 3.54168 -0.00162132 3.5061 0.0068605 3.472L 0.614861 0.272C 0.630495 0.195405 0.672047 0.126537 0.732518 0.076994C 0.79299 0.0274511 0.868687 0.000260043 0.946862 0C 0.98157 0.000313459 1.01577 0.00841094 1.04693 0.0236958C 1.07809 0.0389806 1.10543 0.0610633 1.12692 0.0883164C 1.14842 0.115569 1.16353 0.147298 1.17113 0.181165C 1.17873 0.215032 1.17864 0.250174 1.17086 0.284" transform="translate(15.5491 3.3999)" fill="#9BA0A5"/>
                    <path d="M 1.17086 0.284L 0.56286 3.484C 0.547344 3.56099 0.505948 3.63036 0.445551 3.68057C 0.385154 3.73078 0.309394 3.75881 0.230861 3.76C 0.195724 3.75983 0.161086 3.75168 0.129559 3.73616C 0.0980332 3.72065 0.0704432 3.69817 0.048871 3.67044C 0.0272988 3.6427 0.0123083 3.61043 0.00503097 3.57605C -0.00224637 3.54168 -0.00162132 3.5061 0.0068605 3.472L 0.614861 0.272C 0.630495 0.195405 0.672047 0.126537 0.732518 0.076994C 0.79299 0.0274511 0.868687 0.000260043 0.946862 0C 0.98157 0.000313459 1.01577 0.00841094 1.04693 0.0236958C 1.07809 0.0389806 1.10543 0.0610633 1.12692 0.0883164C 1.14842 0.115569 1.16353 0.147298 1.17113 0.181165C 1.17873 0.215032 1.17864 0.250174 1.17086 0.284" stroke-width="0.1" stroke-miterlimit="10" transform="translate(15.5491 3.3999)" stroke="#9BA0A5"/>
                </g>
                <g id="&#60;Path&#62;_5">
                    <path d="M 1.01086 0.276084L 0.562861 2.65608C 0.546673 2.73275 0.505088 2.8017 0.444836 2.85179C 0.384584 2.90188 0.30919 2.93017 0.23086 2.93208C 0.195723 2.93191 0.161085 2.92376 0.129559 2.90825C 0.0980323 2.89273 0.0704422 2.87026 0.0488701 2.84252C 0.0272979 2.81479 0.0123074 2.78251 0.00503005 2.74814C -0.00224728 2.71376 -0.00162071 2.67818 0.00686111 2.64408L 0.454861 0.276084C 0.471048 0.199421 0.512634 0.130465 0.572886 0.0803755C 0.633138 0.0302864 0.708531 0.00199617 0.786861 8.41372e-05C 0.821213 -0.000857715 0.85532 0.00611642 0.886544 0.020467C 0.917768 0.0348176 0.945272 0.0561598 0.966927 0.0828421C 0.988583 0.109524 1.00381 0.140831 1.01143 0.17434C 1.01904 0.207849 1.01885 0.242662 1.01086 0.276084" transform="translate(16.7092 3.12378)" fill="#9BA0A5"/>
                    <path d="M 1.01086 0.276084L 0.562861 2.65608C 0.546673 2.73275 0.505088 2.8017 0.444836 2.85179C 0.384584 2.90188 0.30919 2.93017 0.23086 2.93208C 0.195723 2.93191 0.161085 2.92376 0.129559 2.90825C 0.0980323 2.89273 0.0704422 2.87026 0.0488701 2.84252C 0.0272979 2.81479 0.0123074 2.78251 0.00503005 2.74814C -0.00224728 2.71376 -0.00162071 2.67818 0.00686111 2.64408L 0.454861 0.276084C 0.471048 0.199421 0.512634 0.130465 0.572886 0.0803755C 0.633138 0.0302864 0.708531 0.00199617 0.786861 8.41372e-05C 0.821213 -0.000857715 0.85532 0.00611642 0.886544 0.020467C 0.917768 0.0348176 0.945272 0.0561598 0.966927 0.0828421C 0.988583 0.109524 1.00381 0.140831 1.01143 0.17434C 1.01904 0.207849 1.01885 0.242662 1.01086 0.276084" stroke-width="0.1" stroke-miterlimit="10" transform="translate(16.7092 3.12378)" stroke="#9BA0A5"/>
                </g>
                <g id="&#60;Path&#62;_6">
                    <path d="M 0.79899 0.28402L 0.56299 1.52402C 0.548169 1.60135 0.506968 1.67114 0.446419 1.72148C 0.38587 1.77181 0.309727 1.79957 0.230989 1.80002C 0.196028 1.80048 0.16143 1.79289 0.12987 1.77784C 0.0983107 1.76279 0.0706347 1.74069 0.0489821 1.71324C 0.0273295 1.68578 0.0122802 1.65372 0.00499865 1.61952C -0.0022829 1.58533 -0.0016022 1.54991 0.0069884 1.51602L 0.242988 0.27202C 0.259304 0.195764 0.301045 0.127314 0.361368 0.0778932C 0.42169 0.0284726 0.497014 0.00101403 0.574989 1.95977e-05C 0.60995 -0.000438785 0.644548 0.00714937 0.676108 0.0221975C 0.707667 0.0372456 0.735343 0.0593505 0.756996 0.0868028C 0.778649 0.114255 0.793698 0.14632 0.80098 0.180517C 0.808261 0.214714 0.80758 0.250128 0.79899 0.28402" transform="translate(17.761 3.69971)" fill="#9BA0A5"/>
                    <path d="M 0.79899 0.28402L 0.56299 1.52402C 0.548169 1.60135 0.506968 1.67114 0.446419 1.72148C 0.38587 1.77181 0.309727 1.79957 0.230989 1.80002C 0.196028 1.80048 0.16143 1.79289 0.12987 1.77784C 0.0983107 1.76279 0.0706347 1.74069 0.0489821 1.71324C 0.0273295 1.68578 0.0122802 1.65372 0.00499865 1.61952C -0.0022829 1.58533 -0.0016022 1.54991 0.0069884 1.51602L 0.242988 0.27202C 0.259304 0.195764 0.301045 0.127314 0.361368 0.0778932C 0.42169 0.0284726 0.497014 0.00101403 0.574989 1.95977e-05C 0.60995 -0.000438785 0.644548 0.00714937 0.676108 0.0221975C 0.707667 0.0372456 0.735343 0.0593505 0.756996 0.0868028C 0.778649 0.114255 0.793698 0.14632 0.80098 0.180517C 0.808261 0.214714 0.80758 0.250128 0.79899 0.28402" stroke-width="0.1" stroke-miterlimit="10" transform="translate(17.761 3.69971)" stroke="#9BA0A5"/>
                </g>
                <g id="&#60;Path&#62;_7">
                    <path d="M 0.628228 0.28002L 0.564227 0.63602C 0.548039 0.712683 0.506454 0.781639 0.446201 0.831728C 0.385949 0.881818 0.310557 0.910107 0.232227 0.912019C 0.197007 0.913314 0.161978 0.906279 0.129987 0.891487C 0.0979973 0.876695 0.0699489 0.854563 0.0481225 0.826891C 0.0262961 0.799218 0.0113078 0.766785 0.00437554 0.732229C -0.00255672 0.697673 -0.00123739 0.661969 0.00822686 0.62802L 0.0722268 0.27202C 0.0898316 0.19642 0.131932 0.128759 0.191976 0.0795663C 0.252021 0.0303734 0.326642 0.00240724 0.404228 1.95977e-05C 0.439188 -0.000438785 0.473786 0.00714937 0.505346 0.0221975C 0.536906 0.0372456 0.564582 0.0593505 0.586234 0.0868028C 0.607887 0.114255 0.622936 0.146319 0.630218 0.180517C 0.637499 0.214714 0.636819 0.250128 0.628228 0.28402" transform="translate(18.7037 4.59985)" fill="#9BA0A5"/>
                    <path d="M 0.628228 0.28002L 0.564227 0.63602C 0.548039 0.712683 0.506454 0.781639 0.446201 0.831728C 0.385949 0.881818 0.310557 0.910107 0.232227 0.912019C 0.197007 0.913314 0.161978 0.906279 0.129987 0.891487C 0.0979973 0.876695 0.0699489 0.854563 0.0481225 0.826891C 0.0262961 0.799218 0.0113078 0.766785 0.00437554 0.732229C -0.00255672 0.697673 -0.00123739 0.661969 0.00822686 0.62802L 0.0722268 0.27202C 0.0898316 0.19642 0.131932 0.128759 0.191976 0.0795663C 0.252021 0.0303734 0.326642 0.00240724 0.404228 1.95977e-05C 0.439188 -0.000438785 0.473786 0.00714937 0.505346 0.0221975C 0.536906 0.0372456 0.564582 0.0593505 0.586234 0.0868028C 0.607887 0.114255 0.622936 0.146319 0.630218 0.180517C 0.637499 0.214714 0.636819 0.250128 0.628228 0.28402" stroke-width="0.1" stroke-miterlimit="10" transform="translate(18.7037 4.59985)" stroke="#9BA0A5"/>
                </g>
            </g>
            <g id="Vector (Stroke)_11">
                <path fill-rule="evenodd" clip-rule="evenodd" d="M 3.8 0L 26.8 0L 26.8 13.6C 26.8 16.0301 24.8301 18 22.4 18L 2 18C 0.895431 18 0 17.1046 0 16L 0 2.2L 3.8 2.2L 3.8 0ZM 3.8 3L 0.8 3L 0.8 16C 0.8 16.6627 1.33726 17.2 2 17.2L 2.4 17.2C 2.96626 17.2 3.30458 16.9341 3.51539 16.6413C 3.62409 16.4903 3.69791 16.332 3.74405 16.2012C 3.78122 16.0959 3.79394 16.0278 3.7981 16.0055C 3.79963 15.9973 3.8 15.9953 3.8 16L 3.8 3ZM 4.09544 17.2L 22.4 17.2C 24.3882 17.2 26 15.5882 26 13.6L 26 0.8L 4.6 0.8L 4.6 16C 4.6 16.1174 4.5601 16.2928 4.49845 16.4675C 4.43209 16.6555 4.32591 16.8847 4.16461 17.1087C 4.1426 17.1393 4.11955 17.1698 4.09544 17.2Z" transform="translate(1 1)" fill="#9BA0A5"/>
                <path d="M 3.8 0L 26.8 0L 26.8 13.6C 26.8 16.0301 24.8301 18 22.4 18L 2 18C 0.895431 18 0 17.1046 0 16L 0 2.2L 3.8 2.2L 3.8 0ZM 0.8 3L 3.8 3L 3.8 16C 3.8 15.9953 3.79963 15.9973 3.7981 16.0055C 3.79394 16.0278 3.78122 16.0959 3.74405 16.2012C 3.69791 16.332 3.62409 16.4903 3.51539 16.6413C 3.30458 16.9341 2.96626 17.2 2.4 17.2L 2 17.2C 1.33726 17.2 0.8 16.6627 0.8 16L 0.8 3ZM 22.4 17.2L 4.09544 17.2C 4.11955 17.1698 4.1426 17.1393 4.16461 17.1087C 4.32591 16.8847 4.43209 16.6555 4.49845 16.4675C 4.5601 16.2928 4.6 16.1174 4.6 16L 4.6 0.8L 26 0.8L 26 13.6C 26 15.5882 24.3882 17.2 22.4 17.2Z" stroke-width="0.1" stroke-miterlimit="10" transform="translate(1 1)" stroke="#9BA0A5"/>
            </g>
        </g>
    </g>
</svg>

