<svg width="25" height="21" viewBox="0 0 25 21" fill="none" xmlns="http://www.w3.org/2000/svg">
    <path fill-rule="evenodd" clip-rule="evenodd" d="M1.47218 0.182823C1.76192 0.0621254 2.0725 -3.77497e-07 2.38616 0H5.26721C5.90089 0 6.50862 0.252894 6.95671 0.703047C7.40479 1.1532 7.65652 1.76374 7.65652 2.40035H7.02609C7.02609 1.93171 6.84078 1.48226 6.51093 1.15088C6.18107 0.819506 5.73369 0.633338 5.26721 0.633338H2.38616C2.15537 0.633338 1.92684 0.67905 1.71365 0.76786C1.50046 0.856669 1.30679 0.986833 1.14372 1.15091C0.980654 1.31498 0.851384 1.50974 0.763307 1.72405C0.67523 1.93836 0.630076 2.16801 0.630427 2.39987L2.76418e-06 2.40083C-0.000474642 2.08572 0.0608928 1.77361 0.180595 1.48235C0.300297 1.19109 0.475984 0.926395 0.697607 0.703409C0.91923 0.480423 1.18244 0.303521 1.47218 0.182823Z" transform="translate(8.90869 1)" fill="#9BA0A5"/>
    <path d="M2.38616 0C2.0725 -3.77497e-07 1.76192 0.0621254 1.47218 0.182823C1.18244 0.303521 0.91923 0.480423 0.697607 0.703409C0.475984 0.926395 0.300297 1.19109 0.180595 1.48235C0.0608928 1.77361 -0.000474642 2.08572 2.76418e-06 2.40083L0.630427 2.39987C0.630076 2.16801 0.67523 1.93836 0.763307 1.72405C0.851384 1.50974 0.980654 1.31498 1.14372 1.15091C1.30679 0.986833 1.50046 0.856669 1.71365 0.76786C1.92684 0.67905 2.15537 0.633338 2.38616 0.633338H5.26721C5.73369 0.633338 6.18107 0.819506 6.51093 1.15088C6.84078 1.48226 7.02609 1.93171 7.02609 2.40035H7.65652C7.65652 1.76374 7.40479 1.1532 6.95671 0.703047C6.50862 0.252894 5.90089 0 5.26721 0H2.38616Z" transform="translate(8.90869 1)" stroke="#9BA0A5" stroke-width="0.25" stroke-miterlimit="10"/>
    <path fill-rule="evenodd" clip-rule="evenodd" d="M2.20649 0.633338C1.33605 0.633338 0.630425 1.34223 0.630425 2.21668V14.6776C0.630425 15.5521 1.33605 16.261 2.20649 16.261H21.2642C22.1347 16.261 22.8403 15.5521 22.8403 14.6776V2.21668C22.8403 1.34223 22.1347 0.633338 21.2642 0.633338H2.20649ZM0 2.21668C0 0.992443 0.987879 0 2.20649 0H21.2642C22.4829 0 23.4707 0.992443 23.4707 2.21668V14.6776C23.4707 15.9019 22.4829 16.8943 21.2642 16.8943H2.20649C0.987879 16.8943 0 15.9019 0 14.6776V2.21668Z" transform="translate(1 3.10571)" fill="#9BA0A5"/>
    <path d="M0.630425 2.21668C0.630425 1.34223 1.33605 0.633338 2.20649 0.633338H21.2642C22.1347 0.633338 22.8403 1.34223 22.8403 2.21668V14.6776C22.8403 15.5521 22.1347 16.261 21.2642 16.261H2.20649C1.33605 16.261 0.630425 15.5521 0.630425 14.6776V2.21668ZM2.20649 0C0.987879 0 0 0.992443 0 2.21668V14.6776C0 15.9019 0.987879 16.8943 2.20649 16.8943H21.2642C22.4829 16.8943 23.4707 15.9019 23.4707 14.6776V2.21668C23.4707 0.992443 22.4829 0 21.2642 0H2.20649Z" transform="translate(1 3.10571)" stroke="#9BA0A5" stroke-width="0.25" stroke-miterlimit="10"/>
    <path fill-rule="evenodd" clip-rule="evenodd" d="M0.630425 1.09251V0H0V1.72585H3.10169V0H2.47127V1.09251H0.630425Z" transform="translate(5.66833 12.9893)" fill="#9BA0A5"/>
    <path d="M0.630425 1.09251V0H0V1.72585H3.10169V0H2.47127V1.09251H0.630425Z" transform="translate(5.66833 12.9893)" stroke="#9BA0A5" stroke-width="0.25" stroke-miterlimit="10"/>
    <path fill-rule="evenodd" clip-rule="evenodd" d="M0.630425 1.09251V0H0V1.72585H3.10169V0H2.47127V1.09251H0.630425Z" transform="translate(16.7229 12.9893)" fill="#9BA0A5"/>
    <path d="M0.630425 1.09251V0H0V1.72585H3.10169V0H2.47127V1.09251H0.630425Z" transform="translate(16.7229 12.9893)" stroke="#9BA0A5" stroke-width="0.25" stroke-miterlimit="10"/>
    <path fill-rule="evenodd" clip-rule="evenodd" d="M0 0.158334C0 0.0708888 0.0705628 0 0.157606 0H0.315213C0.402256 0 0.472819 0.0708888 0.472819 0.158334C0.472819 0.24578 0.402256 0.316669 0.315213 0.316669H0.157606C0.0705628 0.316669 0 0.24578 0 0.158334Z" transform="translate(1.28052 12.5552)" fill="#9BA0A5"/>
    <path d="M0.157606 0C0.0705628 0 0 0.0708888 0 0.158334C0 0.24578 0.0705628 0.316669 0.157606 0.316669H0.315213C0.402256 0.316669 0.472819 0.24578 0.472819 0.158334C0.472819 0.0708888 0.402256 0 0.315213 0H0.157606Z" transform="translate(1.28052 12.5552)" stroke="#9BA0A5" stroke-width="0.25" stroke-miterlimit="10"/>
    <path fill-rule="evenodd" clip-rule="evenodd" d="M0 0.158334C0 0.0708888 0.0705628 0 0.157606 0H0.310291C0.397334 0 0.467897 0.0708888 0.467897 0.158334C0.467897 0.24578 0.397334 0.316669 0.310291 0.316669H0.157606C0.0705628 0.316669 0 0.24578 0 0.158334ZM1.06571 0.158334C1.06571 0.0708888 1.13627 0 1.22331 0H1.52868C1.61572 0 1.68629 0.0708888 1.68629 0.158334C1.68629 0.24578 1.61572 0.316669 1.52868 0.316669H1.22331C1.13627 0.316669 1.06571 0.24578 1.06571 0.158334ZM2.2841 0.158334C2.2841 0.0708888 2.35466 0 2.4417 0H2.74707C2.83411 0 2.90468 0.0708888 2.90468 0.158334C2.90468 0.24578 2.83411 0.316669 2.74707 0.316669H2.4417C2.35466 0.316669 2.2841 0.24578 2.2841 0.158334ZM3.50249 0.158334C3.50249 0.0708888 3.57305 0 3.66009 0H3.96546C4.0525 0 4.12307 0.0708888 4.12307 0.158334C4.12307 0.24578 4.0525 0.316669 3.96546 0.316669H3.66009C3.57305 0.316669 3.50249 0.24578 3.50249 0.158334ZM4.72087 0.158334C4.72087 0.0708888 4.79144 0 4.87848 0H5.18385C5.27089 0 5.34146 0.0708888 5.34146 0.158334C5.34146 0.24578 5.27089 0.316669 5.18385 0.316669H4.87848C4.79144 0.316669 4.72087 0.24578 4.72087 0.158334ZM5.93926 0.158334C5.93926 0.0708888 6.00983 0 6.09687 0H6.40224C6.48928 0 6.55985 0.0708888 6.55985 0.158334C6.55985 0.24578 6.48928 0.316669 6.40224 0.316669H6.09687C6.00983 0.316669 5.93926 0.24578 5.93926 0.158334ZM7.15765 0.158334C7.15765 0.0708888 7.22822 0 7.31526 0H7.62063C7.70767 0 7.77824 0.0708888 7.77824 0.158334C7.77824 0.24578 7.70767 0.316669 7.62063 0.316669H7.31526C7.22822 0.316669 7.15765 0.24578 7.15765 0.158334ZM8.37604 0.158334C8.37604 0.0708888 8.44661 0 8.53365 0H8.83902C8.92606 0 8.99663 0.0708888 8.99663 0.158334C8.99663 0.24578 8.92606 0.316669 8.83902 0.316669H8.53365C8.44661 0.316669 8.37604 0.24578 8.37604 0.158334ZM9.59443 0.158334C9.59443 0.0708888 9.665 0 9.75204 0H10.0574C10.1445 0 10.215 0.0708888 10.215 0.158334C10.215 0.24578 10.1445 0.316669 10.0574 0.316669H9.75204C9.665 0.316669 9.59443 0.24578 9.59443 0.158334ZM10.8128 0.158334C10.8128 0.0708888 10.8834 0 10.9704 0H11.2758C11.3628 0 11.4334 0.0708888 11.4334 0.158334C11.4334 0.24578 11.3628 0.316669 11.2758 0.316669H10.9704C10.8834 0.316669 10.8128 0.24578 10.8128 0.158334ZM12.0312 0.158334C12.0312 0.0708888 12.1018 0 12.1888 0H12.4942C12.5812 0 12.6518 0.0708888 12.6518 0.158334C12.6518 0.24578 12.5812 0.316669 12.4942 0.316669H12.1888C12.1018 0.316669 12.0312 0.24578 12.0312 0.158334ZM13.2496 0.158334C13.2496 0.0708888 13.3202 0 13.4072 0H13.7126C13.7996 0 13.8702 0.0708888 13.8702 0.158334C13.8702 0.24578 13.7996 0.316669 13.7126 0.316669H13.4072C13.3202 0.316669 13.2496 0.24578 13.2496 0.158334ZM14.468 0.158334C14.468 0.0708888 14.5386 0 14.6256 0H14.931C15.018 0 15.0886 0.0708888 15.0886 0.158334C15.0886 0.24578 15.018 0.316669 14.931 0.316669H14.6256C14.5386 0.316669 14.468 0.24578 14.468 0.158334ZM15.6864 0.158334C15.6864 0.0708888 15.7569 0 15.844 0H16.1494C16.2364 0 16.307 0.0708888 16.307 0.158334C16.307 0.24578 16.2364 0.316669 16.1494 0.316669H15.844C15.7569 0.316669 15.6864 0.24578 15.6864 0.158334ZM16.9048 0.158334C16.9048 0.0708888 16.9753 0 17.0624 0H17.3677C17.4548 0 17.5254 0.0708888 17.5254 0.158334C17.5254 0.24578 17.4548 0.316669 17.3677 0.316669H17.0624C16.9753 0.316669 16.9048 0.24578 16.9048 0.158334ZM18.1232 0.158334C18.1232 0.0708888 18.1937 0 18.2808 0H18.5861C18.6732 0 18.7437 0.0708888 18.7437 0.158334C18.7437 0.24578 18.6732 0.316669 18.5861 0.316669H18.2808C18.1937 0.316669 18.1232 0.24578 18.1232 0.158334ZM19.3416 0.158334C19.3416 0.0708888 19.4121 0 19.4992 0H19.8045C19.8916 0 19.9621 0.0708888 19.9621 0.158334C19.9621 0.24578 19.8916 0.316669 19.8045 0.316669H19.4992C19.4121 0.316669 19.3416 0.24578 19.3416 0.158334ZM20.5599 0.158334C20.5599 0.0708888 20.6305 0 20.7176 0H20.8702C20.9573 0 21.0278 0.0708888 21.0278 0.158334C21.0278 0.24578 20.9573 0.316669 20.8702 0.316669H20.7176C20.6305 0.316669 20.5599 0.24578 20.5599 0.158334Z" transform="translate(2.37109 12.5552)" fill="#9BA0A5"/>
    <path d="M0.157606 0C0.0705628 0 0 0.0708888 0 0.158334C0 0.24578 0.0705628 0.316669 0.157606 0.316669H0.310291C0.397334 0.316669 0.467897 0.24578 0.467897 0.158334C0.467897 0.0708888 0.397334 0 0.310291 0H0.157606ZM1.22331 0C1.13627 0 1.06571 0.0708888 1.06571 0.158334C1.06571 0.24578 1.13627 0.316669 1.22331 0.316669H1.52868C1.61572 0.316669 1.68629 0.24578 1.68629 0.158334C1.68629 0.0708888 1.61572 0 1.52868 0H1.22331ZM2.4417 0C2.35466 0 2.2841 0.0708888 2.2841 0.158334C2.2841 0.24578 2.35466 0.316669 2.4417 0.316669H2.74707C2.83411 0.316669 2.90468 0.24578 2.90468 0.158334C2.90468 0.0708888 2.83411 0 2.74707 0H2.4417ZM3.66009 0C3.57305 0 3.50249 0.0708888 3.50249 0.158334C3.50249 0.24578 3.57305 0.316669 3.66009 0.316669H3.96546C4.0525 0.316669 4.12307 0.24578 4.12307 0.158334C4.12307 0.0708888 4.0525 0 3.96546 0H3.66009ZM4.87848 0C4.79144 0 4.72088 0.0708888 4.72088 0.158334C4.72088 0.24578 4.79144 0.316669 4.87848 0.316669H5.18385C5.27089 0.316669 5.34146 0.24578 5.34146 0.158334C5.34146 0.0708888 5.27089 0 5.18385 0H4.87848ZM6.09687 0C6.00983 0 5.93926 0.0708888 5.93926 0.158334C5.93926 0.24578 6.00983 0.316669 6.09687 0.316669H6.40224C6.48928 0.316669 6.55985 0.24578 6.55985 0.158334C6.55985 0.0708888 6.48928 0 6.40224 0H6.09687ZM7.31526 0C7.22822 0 7.15765 0.0708888 7.15765 0.158334C7.15765 0.24578 7.22822 0.316669 7.31526 0.316669H7.62063C7.70767 0.316669 7.77824 0.24578 7.77824 0.158334C7.77824 0.0708888 7.70767 0 7.62063 0H7.31526ZM8.53365 0C8.44661 0 8.37604 0.0708888 8.37604 0.158334C8.37604 0.24578 8.44661 0.316669 8.53365 0.316669H8.83902C8.92606 0.316669 8.99663 0.24578 8.99663 0.158334C8.99663 0.0708888 8.92606 0 8.83902 0H8.53365ZM9.75204 0C9.665 0 9.59443 0.0708888 9.59443 0.158334C9.59443 0.24578 9.665 0.316669 9.75204 0.316669H10.0574C10.1445 0.316669 10.215 0.24578 10.215 0.158334C10.215 0.0708888 10.1445 0 10.0574 0H9.75204ZM10.9704 0C10.8834 0 10.8128 0.0708888 10.8128 0.158334C10.8128 0.24578 10.8834 0.316669 10.9704 0.316669H11.2758C11.3628 0.316669 11.4334 0.24578 11.4334 0.158334C11.4334 0.0708888 11.3628 0 11.2758 0H10.9704ZM12.1888 0C12.1018 0 12.0312 0.0708888 12.0312 0.158334C12.0312 0.24578 12.1018 0.316669 12.1888 0.316669H12.4942C12.5812 0.316669 12.6518 0.24578 12.6518 0.158334C12.6518 0.0708888 12.5812 0 12.4942 0H12.1888ZM13.4072 0C13.3202 0 13.2496 0.0708888 13.2496 0.158334C13.2496 0.24578 13.3202 0.316669 13.4072 0.316669H13.7126C13.7996 0.316669 13.8702 0.24578 13.8702 0.158334C13.8702 0.0708888 13.7996 0 13.7126 0H13.4072ZM14.6256 0C14.5386 0 14.468 0.0708888 14.468 0.158334C14.468 0.24578 14.5386 0.316669 14.6256 0.316669H14.931C15.018 0.316669 15.0886 0.24578 15.0886 0.158334C15.0886 0.0708888 15.018 0 14.931 0H14.6256ZM15.844 0C15.7569 0 15.6864 0.0708888 15.6864 0.158334C15.6864 0.24578 15.7569 0.316669 15.844 0.316669H16.1494C16.2364 0.316669 16.307 0.24578 16.307 0.158334C16.307 0.0708888 16.2364 0 16.1494 0H15.844ZM17.0624 0C16.9753 0 16.9048 0.0708888 16.9048 0.158334C16.9048 0.24578 16.9753 0.316669 17.0624 0.316669H17.3677C17.4548 0.316669 17.5254 0.24578 17.5254 0.158334C17.5254 0.0708888 17.4548 0 17.3677 0H17.0624ZM18.2808 0C18.1937 0 18.1232 0.0708888 18.1232 0.158334C18.1232 0.24578 18.1937 0.316669 18.2808 0.316669H18.5861C18.6732 0.316669 18.7437 0.24578 18.7437 0.158334C18.7437 0.0708888 18.6732 0 18.5861 0H18.2808ZM19.4992 0C19.4121 0 19.3416 0.0708888 19.3416 0.158334C19.3416 0.24578 19.4121 0.316669 19.4992 0.316669H19.8045C19.8916 0.316669 19.9621 0.24578 19.9621 0.158334C19.9621 0.0708888 19.8916 0 19.8045 0H19.4992ZM20.7175 0C20.6305 0 20.5599 0.0708888 20.5599 0.158334C20.5599 0.24578 20.6305 0.316669 20.7175 0.316669H20.8702C20.9573 0.316669 21.0278 0.24578 21.0278 0.158334C21.0278 0.0708888 20.9573 0 20.8702 0H20.7175Z" transform="translate(2.37109 12.5552)" stroke="#9BA0A5" stroke-width="0.25" stroke-miterlimit="10"/>
    <path fill-rule="evenodd" clip-rule="evenodd" d="M0 0.158334C0 0.0708888 0.0705628 0 0.157606 0H0.315213C0.402256 0 0.472819 0.0708888 0.472819 0.158334C0.472819 0.24578 0.402256 0.316669 0.315213 0.316669H0.157606C0.0705628 0.316669 0 0.24578 0 0.158334Z" transform="translate(23.5535 12.5552)" fill="#9BA0A5"/>
    <path d="M0.157606 0C0.0705628 0 0 0.0708888 0 0.158334C0 0.24578 0.0705628 0.316669 0.157606 0.316669H0.315213C0.402256 0.316669 0.472819 0.24578 0.472819 0.158334C0.472819 0.0708888 0.402256 0 0.315213 0H0.157606Z" transform="translate(23.5535 12.5552)" stroke="#9BA0A5" stroke-width="0.25" stroke-miterlimit="10"/>
</svg>
