<svg xmlns="http://www.w3.org/2000/svg" xmlns:xlink="http://www.w3.org/1999/xlink" version="1.1" x="0px" y="0px" viewBox="0 0 1024 1024" style="enable-background:new 0 0 1024 1024;" xml:space="preserve"><style type="text/css">
	.st0{fill:none;stroke:#000000;stroke-width:80;stroke-miterlimit:10;}
</style><path class="st0" d="M903.7,150.3c0,5.2-1.4,10.1-3.7,14.3l-1.5,2.4L598,548.4v260.1c0,10.8-5.9,20.2-14.6,25.3  l-4.1,2L469,899.6l-1.5,0.7c-3.7,1.7-7.8,2.6-12.2,2.6c-16.2,0-29.4-13.1-29.4-29.3V548.4L125.5,167.1l-1.5-2.4  c-2.4-4.2-3.7-9.1-3.7-14.3c0-16.2,13.2-29.3,29.4-29.3h724.7C890.6,121,903.7,134.1,903.7,150.3z"></path></svg>